<?xml version="1.0" encoding="utf-8"?>
<!-- Generator: Adobe Illustrator 16.0.0, SVG Export Plug-In . SVG Version: 6.00 Build 0)  -->
<!DOCTYPE svg PUBLIC "-//W3C//DTD SVG 1.1//EN" "http://www.w3.org/Graphics/SVG/1.1/DTD/svg11.dtd">
<svg version="1.1" id="Layer_1" xmlns="http://www.w3.org/2000/svg" xmlns:xlink="http://www.w3.org/1999/xlink" x="0px" y="0px"
	 width="1688.494px" height="718.732px" viewBox="0 0 1688.494 718.732" enable-background="new 0 0 1688.494 718.732"
	 xml:space="preserve">
<g id="beds">
	<g id="bed-24">
		<g>
			<polygon fill="none" stroke="#000000" stroke-width="7.1161" stroke-miterlimit="10" points="1667.583,52.595 1667.609,128.959 
				1601.484,167.165 1535.347,129.008 1535.318,52.639 1601.445,14.435 			"/>
			<polygon fill="none" stroke="#000000" stroke-width="7.1161" stroke-miterlimit="10" points="1653.355,60.812 1653.373,120.745 
				1601.48,150.729 1549.576,120.789 1549.556,60.849 1601.449,30.871 			"/>
		</g>
	</g>
	<g id="bed-23">
		<g>
			<polygon fill="none" stroke="#000000" stroke-width="7.1161" stroke-miterlimit="10" points="1510.412,52.645 1510.431,129.008 
				1444.316,167.216 1378.167,129.06 1378.148,52.69 1444.265,14.484 			"/>
			<polygon fill="none" stroke="#000000" stroke-width="7.1161" stroke-miterlimit="10" points="1496.186,60.869 1496.201,120.798 
				1444.308,150.779 1392.398,120.84 1392.382,60.906 1444.271,30.92 			"/>
		</g>
	</g>
	<g id="bed-22">
		<g>
			<polygon fill="none" stroke="#000000" stroke-width="7.1161" stroke-miterlimit="10" points="1194.855,52.749 1194.877,129.109 
				1128.755,167.315 1062.609,129.155 1062.587,52.793 1128.709,14.588 			"/>
			<polygon fill="none" stroke="#000000" stroke-width="7.1161" stroke-miterlimit="10" points="1180.625,60.968 1180.642,120.894 
				1128.751,150.879 1076.838,120.934 1076.824,61.004 1128.715,31.023 			"/>
		</g>
	</g>
	<g id="bed-21">
		<g>
			<polygon fill="none" stroke="#000000" stroke-width="7.1161" stroke-miterlimit="10" points="1037.678,52.8 1037.703,129.162 
				971.582,167.361 905.441,129.204 905.41,52.848 971.535,14.64 			"/>
			<polygon fill="none" stroke="#000000" stroke-width="7.1161" stroke-miterlimit="10" points="1023.451,61.018 1023.468,120.947 
				971.578,150.927 919.668,120.981 919.648,61.06 971.541,31.076 			"/>
		</g>
	</g>
	<g id="bed-20">
		<g>
			<polygon fill="none" stroke="#000000" stroke-width="7.1161" stroke-miterlimit="10" points="1589.041,187.984 1589.066,264.344 
				1522.943,302.548 1456.8,264.387 1456.777,188.026 1522.9,149.824 			"/>
			<polygon fill="none" stroke="#000000" stroke-width="7.1161" stroke-miterlimit="10" points="1574.812,196.206 1574.83,256.132 
				1522.939,286.114 1471.031,256.164 1471.013,196.238 1522.904,166.261 			"/>
		</g>
	</g>
	<g id="bed-19">
		<g>
			<polygon fill="none" stroke="#000000" stroke-width="7.1161" stroke-miterlimit="10" points="1116.311,188.136 1116.333,264.499 
				1050.215,302.705 984.072,264.545 984.045,188.18 1050.166,149.976 			"/>
			<polygon fill="none" stroke="#000000" stroke-width="7.1161" stroke-miterlimit="10" points="1102.08,196.357 1102.099,256.287 
				1050.209,286.271 998.302,256.323 998.279,196.392 1050.169,166.412 			"/>
		</g>
	</g>
	<g id="bed-18">
		<g>
			<polygon fill="none" stroke="#000000" stroke-width="7.1161" stroke-miterlimit="10" points="1509.287,323.56 1509.304,399.92 
				1443.186,438.124 1377.044,399.965 1377.021,323.598 1443.14,285.393 			"/>
			<polygon fill="none" stroke="#000000" stroke-width="7.1161" stroke-miterlimit="10" points="1495.058,331.779 1495.074,391.704 
				1443.181,421.69 1391.275,391.743 1391.253,331.812 1443.146,301.828 			"/>
		</g>
	</g>
	<g id="bed-17">
		<g>
			<polygon fill="none" stroke="#000000" stroke-width="7.1161" stroke-miterlimit="10" points="1352.115,323.607 1352.142,399.971 
				1286.017,438.178 1219.871,400.016 1219.849,323.653 1285.97,285.45 			"/>
			<polygon fill="none" stroke="#000000" stroke-width="7.1161" stroke-miterlimit="10" points="1337.888,331.829 1337.904,391.76 
				1286.011,421.745 1234.104,391.795 1234.083,331.866 1285.974,301.884 			"/>
		</g>
	</g>
	<g id="bed-16">
		<g>
			<polygon fill="none" stroke="#000000" stroke-width="7.1161" stroke-miterlimit="10" points="1194.941,323.659 1194.963,400.022 
				1128.845,438.227 1062.695,400.065 1062.677,323.699 1128.793,285.502 			"/>
			<polygon fill="none" stroke="#000000" stroke-width="7.1161" stroke-miterlimit="10" points="1180.712,331.881 1180.73,391.811 
				1128.839,421.793 1076.928,391.846 1076.912,331.912 1128.799,301.938 			"/>
		</g>
	</g>
	<g id="bed-15">
		<g>
			<polygon fill="none" stroke="#000000" stroke-width="7.1161" stroke-miterlimit="10" points="1273.568,458.997 1273.595,535.358 
				1207.476,573.562 1141.328,535.405 1141.305,459.043 1207.423,420.84 			"/>
			<polygon fill="none" stroke="#000000" stroke-width="7.1161" stroke-miterlimit="10" points="1259.34,467.219 1259.359,527.146 
				1207.472,557.129 1155.561,527.186 1155.542,467.256 1207.429,437.272 			"/>
		</g>
	</g>
	<g id="bed-14">
		<g>
			<polygon fill="none" stroke="#000000" stroke-width="7.1161" stroke-miterlimit="10" points="1430.74,458.944 1430.77,535.311 
				1364.648,573.514 1298.501,535.354 1298.476,458.989 1364.597,420.788 			"/>
			<polygon fill="none" stroke="#000000" stroke-width="7.1161" stroke-miterlimit="10" points="1416.513,467.168 1416.531,527.1 
				1364.642,557.079 1312.73,527.133 1312.71,467.202 1364.601,437.227 			"/>
		</g>
	</g>
	<g id="bed-13">
		<g>
			<polygon fill="none" stroke="#000000" stroke-width="7.1161" stroke-miterlimit="10" points="1351.939,593.653 1351.957,670.02 
				1285.835,708.223 1219.695,670.062 1219.673,593.7 1285.789,555.493 			"/>
			<polygon fill="none" stroke="#000000" stroke-width="7.1161" stroke-miterlimit="10" points="1337.707,601.877 1337.726,661.807 
				1285.832,691.788 1233.925,661.844 1233.906,601.911 1285.796,571.928 			"/>
		</g>
	</g>
	<g id="bed-1">
		<g>
			<polygon fill="none" stroke="#000000" stroke-width="7.1161" stroke-miterlimit="10" points="328.591,127.042 328.571,50.676 
				394.693,12.472 460.833,50.632 460.859,126.996 394.74,165.202 			"/>
			<polygon fill="none" stroke="#000000" stroke-width="7.1161" stroke-miterlimit="10" points="342.825,118.82 342.804,58.888 
				394.697,28.906 446.604,58.854 446.621,118.782 394.734,148.767 			"/>
		</g>
	</g>
	<g id="bed-2">
		<g>
			<polygon fill="none" stroke="#000000" stroke-width="7.1161" stroke-miterlimit="10" points="249.79,261.75 249.762,185.384 
				315.882,147.182 382.028,185.342 382.053,261.706 315.932,299.906 			"/>
			<polygon fill="none" stroke="#000000" stroke-width="7.1161" stroke-miterlimit="10" points="264.017,253.526 263.999,193.596 
				315.888,163.617 367.8,193.564 367.818,253.492 315.928,283.47 			"/>
		</g>
	</g>
	<g id="bed-3">
		<g>
			<polygon fill="none" stroke="#000000" stroke-width="7.1161" stroke-miterlimit="10" points="406.96,261.698 406.935,185.336 
				473.054,147.13 539.201,185.289 539.224,261.652 473.105,299.856 			"/>
			<polygon fill="none" stroke="#000000" stroke-width="7.1161" stroke-miterlimit="10" points="421.188,253.476 421.171,193.548 
				473.06,163.567 524.972,193.51 524.99,253.44 473.099,283.422 			"/>
		</g>
	</g>
	<g id="bed-4">
		<g>
			<polygon fill="none" stroke="#000000" stroke-width="7.1161" stroke-miterlimit="10" points="485.585,397.034 485.564,320.672 
				551.683,282.469 617.833,320.628 617.851,396.995 551.732,435.192 			"/>
			<polygon fill="none" stroke="#000000" stroke-width="7.1161" stroke-miterlimit="10" points="499.816,388.812 499.8,328.885 
				551.689,298.903 603.601,328.85 603.619,388.782 551.729,418.759 			"/>
		</g>
	</g>
	<g id="bed-5">
		<g>
			<polygon fill="none" stroke="#000000" stroke-width="7.1161" stroke-miterlimit="10" points="328.416,397.089 328.39,320.722 
				394.512,282.519 460.658,320.68 460.679,397.04 394.56,435.245 			"/>
			<polygon fill="none" stroke="#000000" stroke-width="7.1161" stroke-miterlimit="10" points="342.642,388.866 342.626,328.938 
				394.519,298.951 446.427,328.9 446.445,388.829 394.556,418.812 			"/>
		</g>
	</g>
	<g id="bed-6">
		<g>
			<polygon fill="none" stroke="#000000" stroke-width="7.1161" stroke-miterlimit="10" points="171.243,397.138 171.224,320.776 
				237.343,282.571 303.484,320.73 303.508,397.099 237.391,435.304 			"/>
			<polygon fill="none" stroke="#000000" stroke-width="7.1161" stroke-miterlimit="10" points="185.471,388.915 185.46,328.99 
				237.349,299.004 289.254,328.952 289.276,388.884 237.383,418.866 			"/>
		</g>
	</g>
	<g id="bed-7">
		<g>
			<polygon fill="none" stroke="#000000" stroke-width="7.1161" stroke-miterlimit="10" points="564.22,532.562 564.195,456.194 
				630.314,417.989 696.457,456.149 696.484,532.517 630.365,570.72 			"/>
			<polygon fill="none" stroke="#000000" stroke-width="7.1161" stroke-miterlimit="10" points="578.449,524.339 578.431,464.407 
				630.32,434.425 682.23,464.37 682.246,524.304 630.357,554.282 			"/>
		</g>
	</g>
	<g id="bed-8">
		<g>
			<polygon fill="none" stroke="#000000" stroke-width="7.1161" stroke-miterlimit="10" points="91.489,532.712 91.463,456.353 
				157.586,418.147 223.729,456.31 223.752,532.671 157.632,570.87 			"/>
			<polygon fill="none" stroke="#000000" stroke-width="7.1161" stroke-miterlimit="10" points="105.716,524.489 105.701,464.562 
				157.591,434.581 209.499,464.53 209.517,524.456 157.625,554.438 			"/>
		</g>
	</g>
	<g id="bed-9">
		<g>
			<polygon fill="none" stroke="#000000" stroke-width="7.1161" stroke-miterlimit="10" points="12.945,668.104 12.921,591.733 
				79.045,553.53 145.181,591.688 145.21,668.058 79.086,706.261 			"/>
			<polygon fill="none" stroke="#000000" stroke-width="7.1161" stroke-miterlimit="10" points="27.175,659.884 27.157,599.95 
				79.051,569.968 130.954,599.907 130.974,659.847 79.083,689.823 			"/>
		</g>
	</g>
	<g id="bed-10">
		<g>
			<polygon fill="none" stroke="#000000" stroke-width="7.1161" stroke-miterlimit="10" points="170.117,668.052 170.095,591.688 
				236.216,553.479 302.362,591.638 302.384,668.007 236.263,706.212 			"/>
			<polygon fill="none" stroke="#000000" stroke-width="7.1161" stroke-miterlimit="10" points="184.346,659.827 184.329,599.896 
				236.221,569.915 288.132,599.854 288.148,659.788 236.258,689.774 			"/>
		</g>
	</g>
	<g id="bed-11">
		<g>
			<polygon fill="none" stroke="#000000" stroke-width="7.1161" stroke-miterlimit="10" points="485.673,667.946 485.65,591.587 
				551.773,553.382 617.921,591.54 617.943,667.903 551.82,706.106 			"/>
			<polygon fill="none" stroke="#000000" stroke-width="7.1161" stroke-miterlimit="10" points="499.902,659.729 499.886,599.804 
				551.781,569.815 603.691,599.763 603.707,659.69 551.816,689.673 			"/>
		</g>
	</g>
	<g id="bed-12">
		<g>
			<polygon fill="none" stroke="#000000" stroke-width="7.1161" stroke-miterlimit="10" points="642.849,667.896 642.824,591.534 
				708.947,553.335 775.091,591.491 775.117,667.849 708.994,706.058 			"/>
			<polygon fill="none" stroke="#000000" stroke-width="7.1161" stroke-miterlimit="10" points="657.078,659.679 657.06,599.747 
				708.951,569.769 760.861,599.716 760.88,659.638 708.99,689.618 			"/>
		</g>
	</g>
</g>
<g id="rhizotron_1_">
	<g id="rhizotron">
		<g>
			<circle fill="#FFFFFF" stroke="#231F20" stroke-width="7.1161" stroke-miterlimit="10" cx="1645.281" cy="40.802" r="30.292"/>
			<g>
				<path fill="#231F20" d="M1628.664,39.896l2.312-7.141c5.328,1.876,9.201,3.505,11.613,4.878
					c-0.639-6.068-0.969-10.241-1.006-12.521h7.289c-0.104,3.317-0.486,7.479-1.154,12.471c3.455-1.744,7.404-3.354,11.865-4.828
					l2.312,7.141c-4.258,1.409-8.43,2.35-12.52,2.815c2.047,1.772,4.928,4.941,8.646,9.502l-6.033,4.273
					c-1.945-2.648-4.236-6.25-6.891-10.81c-2.479,4.726-4.66,8.33-6.535,10.81l-5.932-4.273c3.887-4.792,6.67-7.96,8.348-9.502
					C1636.658,41.873,1632.55,40.938,1628.664,39.896z"/>
			</g>
		</g>
	</g>
</g>
</svg>
