<?xml version="1.0" encoding="utf-8"?>
<!-- Generator: Adobe Illustrator 16.0.0, SVG Export Plug-In . SVG Version: 6.00 Build 0)  -->
<!DOCTYPE svg PUBLIC "-//W3C//DTD SVG 1.1//EN" "http://www.w3.org/Graphics/SVG/1.1/DTD/svg11.dtd">
<svg version="1.1" id="Layer_1" xmlns="http://www.w3.org/2000/svg" xmlns:xlink="http://www.w3.org/1999/xlink" x="0px" y="0px"
	 width="67.7px" height="67.701px" viewBox="0 0 67.7 67.701" enable-background="new 0 0 67.7 67.701" xml:space="preserve">
<g>
	<circle fill="#FFFFFF" stroke="#231F20" stroke-width="7.1161" stroke-miterlimit="10" cx="33.85" cy="33.851" r="30.292"/>
	<g>
		<path fill="#231F20" d="M17.233,32.946l2.312-7.141c5.329,1.876,9.202,3.505,11.614,4.878c-0.638-6.068-0.969-10.241-1.005-12.52
			h7.289c-0.102,3.317-0.488,7.478-1.156,12.47c3.455-1.744,7.406-3.354,11.866-4.828l2.312,7.141
			c-4.257,1.409-8.43,2.349-12.519,2.815c2.046,1.773,4.927,4.942,8.648,9.502l-6.034,4.274c-1.946-2.649-4.238-6.25-6.89-10.81
			c-2.479,4.726-4.659,8.33-6.535,10.81l-5.932-4.274c3.888-4.792,6.671-7.96,8.348-9.502C25.227,34.921,21.12,33.987,17.233,32.946
			z"/>
	</g>
</g>
</svg>
