<?xml version="1.0" encoding="utf-8"?>
<!-- Generator: Adobe Illustrator 16.0.0, SVG Export Plug-In . SVG Version: 6.00 Build 0)  -->
<!DOCTYPE svg PUBLIC "-//W3C//DTD SVG 1.1//EN" "http://www.w3.org/Graphics/SVG/1.1/DTD/svg11.dtd">
<svg version="1.1" id="beds-svg" xmlns="http://www.w3.org/2000/svg" xmlns:xlink="http://www.w3.org/1999/xlink" x="0px" y="0px"
	 width="1056.105px" height="596.044px" viewBox="0 0 1056.105 596.044" enable-background="new 0 0 1056.105 596.044"
	 xml:space="preserve">
<g id="beds">
	<g id="bed-20">
		<g>
			<polygon fill="none" stroke="#000000" stroke-width="3.6462" stroke-miterlimit="10" points="461.825,189.89 438.971,221.647 
				400.04,217.733 383.963,182.062 406.819,150.305 445.75,154.219 			"/>
			<polygon fill="none" stroke="#000000" stroke-width="3.6462" stroke-miterlimit="10" points="453.448,189.047 435.51,213.97 
				404.958,210.899 392.342,182.904 410.28,157.981 440.831,161.055 			"/>
		</g>
	</g>
	<g id="bed-11">
		<g>
			<polygon fill="none" stroke="#000000" stroke-width="3.6462" stroke-miterlimit="10" points="580.818,249.935 568.416,287.043 
				530.076,294.855 504.141,265.559 516.545,228.452 554.885,220.639 			"/>
			<polygon fill="none" stroke="#000000" stroke-width="3.6462" stroke-miterlimit="10" points="572.568,251.617 562.834,280.74 
				532.744,286.871 512.393,263.878 522.127,234.755 552.215,228.625 			"/>
		</g>
	</g>
	<g id="bed-10">
		<g>
			<polygon fill="none" stroke="#000000" stroke-width="3.6462" stroke-miterlimit="10" points="380.674,303.668 361.641,337.852 
				322.516,338.459 302.428,304.886 321.463,270.701 360.586,270.091 			"/>
			<polygon fill="none" stroke="#000000" stroke-width="3.6462" stroke-miterlimit="10" points="372.254,303.798 357.317,330.627 
				326.614,331.105 310.848,304.753 325.786,277.925 356.489,277.451 			"/>
		</g>
	</g>
	<g id="bed-1">
		<g>
			<polygon fill="none" stroke="#000000" stroke-width="3.6462" stroke-miterlimit="10" points="328.965,168.874 295.934,189.843 
				261.255,171.72 259.613,132.628 292.646,111.66 327.323,129.783 			"/>
			<polygon fill="none" stroke="#000000" stroke-width="3.6462" stroke-miterlimit="10" points="321.502,164.974 295.58,181.43 
				268.365,167.207 267.074,136.529 292.999,120.072 320.211,134.297 			"/>
		</g>
	</g>
	<g id="bed-2">
		<g>
			<polygon fill="none" stroke="#000000" stroke-width="3.6462" stroke-miterlimit="10" points="251.983,173.389 218.951,194.358 
				184.273,176.234 182.628,137.143 215.663,116.174 250.338,134.297 			"/>
			<polygon fill="none" stroke="#000000" stroke-width="3.6462" stroke-miterlimit="10" points="244.52,169.488 218.596,185.945 
				191.381,171.723 190.091,141.043 216.015,124.587 243.229,138.811 			"/>
		</g>
	</g>
	<g id="bed-4">
		<g>
			<polygon fill="none" stroke="#000000" stroke-width="3.6462" stroke-miterlimit="10" points="117.792,145.321 84.761,166.29 
				50.083,148.166 48.439,109.075 81.472,88.106 116.149,106.229 			"/>
			<polygon fill="none" stroke="#000000" stroke-width="3.6462" stroke-miterlimit="10" points="110.329,141.42 84.407,157.877 
				57.191,143.654 55.902,112.976 81.824,96.519 109.038,110.744 			"/>
		</g>
	</g>
	<g id="bed-6">
		<g>
			<polygon fill="none" stroke="#000000" stroke-width="3.6462" stroke-miterlimit="10" points="107.624,259.41 93.653,295.957 
				55.015,302.13 30.35,271.757 44.322,235.211 82.958,229.038 			"/>
			<polygon fill="none" stroke="#000000" stroke-width="3.6462" stroke-miterlimit="10" points="99.308,260.738 88.345,289.418 
				58.022,294.266 38.665,270.43 49.629,241.749 79.951,236.905 			"/>
		</g>
	</g>
	<g id="bed-7">
		<g>
			<polygon fill="none" stroke="#000000" stroke-width="3.6462" stroke-miterlimit="10" points="120.019,334.393 106.048,370.941 
				67.41,377.115 42.745,346.742 56.718,310.195 95.354,304.021 			"/>
			<polygon fill="none" stroke="#000000" stroke-width="3.6462" stroke-miterlimit="10" points="111.704,335.722 100.74,364.403 
				70.417,369.25 51.06,345.414 62.024,316.732 92.347,311.888 			"/>
		</g>
	</g>
	<g id="bed-8">
		<g>
			<polygon fill="none" stroke="#000000" stroke-width="3.6462" stroke-miterlimit="10" points="131.887,408.814 117.916,445.36 
				79.278,451.534 54.613,421.162 68.584,384.617 107.221,378.442 			"/>
			<polygon fill="none" stroke="#000000" stroke-width="3.6462" stroke-miterlimit="10" points="123.571,410.143 112.608,438.824 
				82.283,443.669 62.928,419.834 73.892,391.152 104.214,386.308 			"/>
		</g>
	</g>
	<g id="bed-9">
		<g>
			<polygon fill="none" stroke="#000000" stroke-width="3.6462" stroke-miterlimit="10" points="202.039,435.916 188.069,472.462 
				149.431,478.636 124.766,448.263 138.738,411.716 177.374,405.543 			"/>
			<polygon fill="none" stroke="#000000" stroke-width="3.6462" stroke-miterlimit="10" points="193.724,437.244 182.76,465.925 
				152.438,470.772 133.081,446.935 144.045,418.252 174.367,413.412 			"/>
		</g>
	</g>
	<g id="bed-5">
		<g>
			<polygon fill="none" stroke="#000000" stroke-width="3.6462" stroke-miterlimit="10" points="152.449,79.628 119.417,100.598 
				84.739,82.474 83.096,43.383 116.129,22.414 150.805,40.537 			"/>
			<polygon fill="none" stroke="#000000" stroke-width="3.6462" stroke-miterlimit="10" points="144.986,75.728 119.063,92.185 
				91.848,77.962 90.558,47.283 116.482,30.827 143.695,45.051 			"/>
		</g>
	</g>
	<g id="bed-3">
		<g>
			<polygon fill="none" stroke="#000000" stroke-width="3.6462" stroke-miterlimit="10" points="287.121,105.342 254.089,126.312 
				219.411,108.188 217.768,69.097 250.801,48.128 285.478,66.251 			"/>
			<polygon fill="none" stroke="#000000" stroke-width="3.6462" stroke-miterlimit="10" points="279.658,101.442 253.735,117.898 
				226.52,103.676 225.23,72.998 251.154,56.54 278.367,70.765 			"/>
		</g>
	</g>
</g>
</svg>
