<?xml version="1.0" encoding="utf-8"?>
<!-- Generator: Adobe Illustrator 16.0.0, SVG Export Plug-In . SVG Version: 6.00 Build 0)  -->
<!DOCTYPE svg PUBLIC "-//W3C//DTD SVG 1.1//EN" "http://www.w3.org/Graphics/SVG/1.1/DTD/svg11.dtd">
<svg version="1.1" id="Layer_1" xmlns="http://www.w3.org/2000/svg" xmlns:xlink="http://www.w3.org/1999/xlink" x="0px" y="0px"
	 width="791.988px" height="718.732px" viewBox="0 0 791.988 718.732" enable-background="new 0 0 791.988 718.732"
	 xml:space="preserve">
<polygon fill="#FFFFFF" stroke="#231F20" stroke-width="7.1161" stroke-miterlimit="10" points="644.824,667.897 644.798,591.534 
	710.921,553.335 777.066,591.491 777.091,667.849 710.968,706.058 "/>
<polygon fill="#FFFFFF" stroke="#231F20" stroke-width="7.1161" stroke-miterlimit="10" points="659.052,659.679 659.035,599.747 
	710.925,569.769 762.835,599.716 762.855,659.638 710.964,689.618 "/>
<polygon fill="#FFFFFF" stroke="#231F20" stroke-width="7.1161" stroke-miterlimit="10" points="487.648,667.946 487.625,591.587 
	553.748,553.382 619.896,591.54 619.917,667.903 553.794,706.106 "/>
<polygon fill="#FFFFFF" stroke="#231F20" stroke-width="7.1161" stroke-miterlimit="10" points="501.876,659.729 501.861,599.804 
	553.755,569.815 605.666,599.763 605.681,659.69 553.791,689.673 "/>
<polygon fill="#FFFFFF" stroke="#231F20" stroke-width="7.1161" stroke-miterlimit="10" points="172.091,668.052 172.07,591.688 
	238.191,553.479 304.336,591.638 304.359,668.007 238.238,706.212 "/>
<polygon fill="#FFFFFF" stroke="#231F20" stroke-width="7.1161" stroke-miterlimit="10" points="186.321,659.827 186.303,599.897 
	238.196,569.915 290.107,599.854 290.123,659.788 238.233,689.774 "/>
<polygon fill="#FFFFFF" stroke="#231F20" stroke-width="7.1161" stroke-miterlimit="10" points="14.919,668.103 14.896,591.733 
	81.02,553.53 147.156,591.688 147.185,668.058 81.061,706.261 "/>
<polygon fill="#FFFFFF" stroke="#231F20" stroke-width="7.1161" stroke-miterlimit="10" points="29.15,659.884 29.131,599.95 
	81.026,569.968 132.928,599.907 132.949,659.847 81.057,689.823 "/>
<polygon fill="#FFFFFF" stroke="#231F20" stroke-width="7.1161" stroke-miterlimit="10" points="566.195,532.562 566.169,456.194 
	632.289,417.989 698.431,456.149 698.458,532.517 632.339,570.72 "/>
<polygon fill="#FFFFFF" stroke="#231F20" stroke-width="7.1161" stroke-miterlimit="10" points="580.423,524.339 580.406,464.407 
	632.294,434.425 684.205,464.37 684.22,524.304 632.332,554.282 "/>
<polygon fill="#FFFFFF" stroke="#231F20" stroke-width="7.1161" stroke-miterlimit="10" points="93.463,532.712 93.438,456.353 
	159.561,418.147 225.704,456.31 225.727,532.671 159.607,570.87 "/>
<polygon fill="#FFFFFF" stroke="#231F20" stroke-width="7.1161" stroke-miterlimit="10" points="107.691,524.489 107.675,464.563 
	159.566,434.581 211.473,464.53 211.492,524.456 159.599,554.437 "/>
<polygon fill="#FFFFFF" stroke="#231F20" stroke-width="7.1161" stroke-miterlimit="10" points="330.39,397.089 330.365,320.722 
	396.486,282.519 462.632,320.68 462.654,397.04 396.535,435.245 "/>
<polygon fill="#FFFFFF" stroke="#231F20" stroke-width="7.1161" stroke-miterlimit="10" points="344.617,388.866 344.601,328.937 
	396.494,298.951 448.402,328.9 448.419,388.829 396.531,418.813 "/>
<polygon fill="#FFFFFF" stroke="#231F20" stroke-width="7.1161" stroke-miterlimit="10" points="487.56,397.034 487.539,320.672 
	553.658,282.469 619.808,320.628 619.826,396.995 553.707,435.192 "/>
<polygon fill="#FFFFFF" stroke="#231F20" stroke-width="7.1161" stroke-miterlimit="10" points="501.791,388.813 501.775,328.885 
	553.664,298.903 605.576,328.85 605.593,388.782 553.703,418.759 "/>
<polygon fill="#FFFFFF" stroke="#231F20" stroke-width="7.1161" stroke-miterlimit="10" points="408.935,261.698 408.91,185.336 
	475.029,147.13 541.175,185.289 541.199,261.652 475.08,299.856 "/>
<polygon fill="#FFFFFF" stroke="#231F20" stroke-width="7.1161" stroke-miterlimit="10" points="423.162,253.476 423.146,193.548 
	475.035,163.567 526.947,193.51 526.964,253.44 475.074,283.422 "/>
<polygon fill="#FFFFFF" stroke="#231F20" stroke-width="7.1161" stroke-miterlimit="10" points="173.217,397.138 173.199,320.776 
	239.318,282.571 305.458,320.73 305.483,397.099 239.366,435.304 "/>
<polygon fill="#FFFFFF" stroke="#231F20" stroke-width="7.1161" stroke-miterlimit="10" points="187.446,388.915 187.435,328.99 
	239.324,299.004 291.229,328.952 291.25,388.884 239.358,418.866 "/>
<polygon fill="#FFFFFF" stroke="#231F20" stroke-width="7.1161" stroke-miterlimit="10" points="251.764,261.75 251.737,185.384 
	317.857,147.182 384.002,185.342 384.027,261.706 317.907,299.906 "/>
<polygon fill="#FFFFFF" stroke="#231F20" stroke-width="7.1161" stroke-miterlimit="10" points="265.992,253.526 265.973,193.596 
	317.863,163.617 369.775,193.564 369.792,253.492 317.903,283.47 "/>
<polygon fill="#FFFFFF" stroke="#231F20" stroke-width="7.1161" stroke-miterlimit="10" points="330.566,127.042 330.545,50.676 
	396.667,12.472 462.808,50.632 462.833,126.996 396.714,165.202 "/>
<polygon fill="#FFFFFF" stroke="#231F20" stroke-width="7.1161" stroke-miterlimit="10" points="344.799,118.82 344.779,58.888 
	396.671,28.906 448.578,58.854 448.595,118.782 396.708,148.767 "/>
</svg>
