<?xml version="1.0" encoding="utf-8"?>
<!-- Generator: Adobe Illustrator 16.0.0, SVG Export Plug-In . SVG Version: 6.00 Build 0)  -->
<!DOCTYPE svg PUBLIC "-//W3C//DTD SVG 1.1//EN" "http://www.w3.org/Graphics/SVG/1.1/DTD/svg11.dtd">
<svg version="1.1" id="Layer_1" xmlns="http://www.w3.org/2000/svg" xmlns:xlink="http://www.w3.org/1999/xlink" x="0px" y="0px"
	 width="791.987px" height="718.732px" viewBox="20.473 59.728 791.987 718.732"
	 enable-background="new 20.473 59.728 791.987 718.732" xml:space="preserve">
<g>
	<polygon fill="#FFFFFF" stroke="#231F20" stroke-width="7.1161" stroke-miterlimit="10" points="163.653,112.528 163.678,188.89 
		97.556,227.09 31.415,188.932 31.385,112.576 97.51,74.368 	"/>
	<polygon fill="#FFFFFF" stroke="#231F20" stroke-width="7.1161" stroke-miterlimit="10" points="149.425,120.746 149.443,180.676 
		97.552,210.655 45.643,180.71 45.622,120.788 97.515,90.804 	"/>
	<polygon fill="#FFFFFF" stroke="#231F20" stroke-width="7.1161" stroke-miterlimit="10" points="320.83,112.477 320.852,188.838 
		254.73,227.044 188.583,188.884 188.562,112.521 254.684,74.316 	"/>
	<polygon fill="#FFFFFF" stroke="#231F20" stroke-width="7.1161" stroke-miterlimit="10" points="306.6,120.696 306.616,180.622 
		254.726,210.607 202.813,180.662 202.798,120.732 254.69,90.752 	"/>
	<polygon fill="#FFFFFF" stroke="#231F20" stroke-width="7.1161" stroke-miterlimit="10" points="636.387,112.373 636.406,188.736 
		570.29,226.944 504.142,188.788 504.122,112.419 570.24,74.213 	"/>
	<polygon fill="#FFFFFF" stroke="#231F20" stroke-width="7.1161" stroke-miterlimit="10" points="622.159,120.597 622.175,180.526 
		570.282,210.508 518.373,180.568 518.356,120.635 570.246,90.648 	"/>
	<polygon fill="#FFFFFF" stroke="#231F20" stroke-width="7.1161" stroke-miterlimit="10" points="793.559,112.323 793.583,188.687 
		727.459,226.893 661.322,188.736 661.293,112.367 727.419,74.163 	"/>
	<polygon fill="#FFFFFF" stroke="#231F20" stroke-width="7.1161" stroke-miterlimit="10" points="779.329,120.541 779.347,180.473 
		727.455,210.457 675.551,180.517 675.53,120.577 727.423,90.599 	"/>
	<polygon fill="#FFFFFF" stroke="#231F20" stroke-width="7.1161" stroke-miterlimit="10" points="242.284,247.864 242.308,324.228 
		176.19,362.434 110.046,324.273 110.02,247.908 176.14,209.704 	"/>
	<polygon fill="#FFFFFF" stroke="#231F20" stroke-width="7.1161" stroke-miterlimit="10" points="228.054,256.086 228.073,316.016 
		176.184,346 124.277,316.052 124.254,256.12 176.144,226.14 	"/>
	<polygon fill="#FFFFFF" stroke="#231F20" stroke-width="7.1161" stroke-miterlimit="10" points="715.015,247.713 715.041,324.072 
		648.917,362.276 582.775,324.115 582.751,247.755 648.874,209.553 	"/>
	<polygon fill="#FFFFFF" stroke="#231F20" stroke-width="7.1161" stroke-miterlimit="10" points="700.787,255.935 700.804,315.86 
		648.914,345.843 597.005,315.893 596.988,255.967 648.879,225.989 	"/>
	<polygon fill="#FFFFFF" stroke="#231F20" stroke-width="7.1161" stroke-miterlimit="10" points="478.089,383.336 478.117,459.699 
		411.992,497.906 345.845,459.744 345.824,383.382 411.944,345.179 	"/>
	<polygon fill="#FFFFFF" stroke="#231F20" stroke-width="7.1161" stroke-miterlimit="10" points="463.863,391.558 463.878,451.488 
		411.986,481.474 360.077,451.523 360.057,391.595 411.948,361.612 	"/>
	<polygon fill="#FFFFFF" stroke="#231F20" stroke-width="7.1161" stroke-miterlimit="10" points="320.916,383.388 320.938,459.751 
		254.82,497.955 188.67,459.794 188.652,383.428 254.768,345.23 	"/>
	<polygon fill="#FFFFFF" stroke="#231F20" stroke-width="7.1161" stroke-miterlimit="10" points="306.687,391.609 306.704,451.539 
		254.814,481.521 202.903,451.574 202.886,391.641 254.774,361.666 	"/>
	<polygon fill="#FFFFFF" stroke="#231F20" stroke-width="7.1161" stroke-miterlimit="10" points="399.543,518.726 399.57,595.087 
		333.45,633.292 267.302,595.134 267.28,518.771 333.398,480.568 	"/>
	<polygon fill="#FFFFFF" stroke="#231F20" stroke-width="7.1161" stroke-miterlimit="10" points="385.315,526.947 385.333,586.875 
		333.446,616.857 281.534,586.914 281.516,526.984 333.404,497.001 	"/>
	<polygon fill="#FFFFFF" stroke="#231F20" stroke-width="7.1161" stroke-miterlimit="10" points="635.261,383.288 635.279,459.648 
		569.159,497.853 503.019,459.693 502.996,383.326 569.115,345.121 	"/>
	<polygon fill="#FFFFFF" stroke="#231F20" stroke-width="7.1161" stroke-miterlimit="10" points="621.033,391.508 621.048,451.433 
		569.155,481.419 517.25,451.472 517.228,391.541 569.12,361.557 	"/>
	<polygon fill="#FFFFFF" stroke="#231F20" stroke-width="7.1161" stroke-miterlimit="10" points="556.715,518.673 556.743,595.039 
		490.623,633.242 424.476,595.082 424.451,518.718 490.572,480.517 	"/>
	<polygon fill="#FFFFFF" stroke="#231F20" stroke-width="7.1161" stroke-miterlimit="10" points="542.487,526.896 542.506,586.828 
		490.617,616.808 438.704,586.861 438.686,526.931 490.576,496.955 	"/>
	<polygon fill="#FFFFFF" stroke="#231F20" stroke-width="7.1161" stroke-miterlimit="10" points="477.914,653.382 477.932,729.748 
		411.81,767.951 345.67,729.792 345.648,653.429 411.764,615.222 	"/>
	<polygon fill="#FFFFFF" stroke="#231F20" stroke-width="7.1161" stroke-miterlimit="10" points="463.681,661.605 463.7,721.535 
		411.806,751.517 359.9,721.572 359.881,661.64 411.772,631.656 	"/>
	<g>
		<circle fill="#FFFFFF" stroke="#231F20" stroke-width="7.1161" stroke-miterlimit="10" cx="771.255" cy="100.53" r="30.292"/>
		<g>
			<path fill="#231F20" d="M754.638,99.625l2.312-7.141c5.329,1.876,9.202,3.505,11.614,4.878
				c-0.638-6.068-0.969-10.241-1.005-12.52h7.289c-0.102,3.317-0.488,7.478-1.156,12.47c3.455-1.744,7.406-3.354,11.866-4.828
				l2.312,7.141c-4.257,1.409-8.43,2.349-12.519,2.815c2.046,1.773,4.927,4.942,8.648,9.502l-6.034,4.274
				c-1.946-2.649-4.238-6.25-6.89-10.81c-2.479,4.726-4.659,8.33-6.535,10.81l-5.932-4.274c3.888-4.792,6.671-7.96,8.348-9.502
				C762.632,101.601,758.525,100.666,754.638,99.625z"/>
		</g>
	</g>
</g>
</svg>
